# xmcd CD database file
#
# Track frame offsets:
#	150
#	16580
#	39850
#	56987
#	79158
#
# Disc length: 1272 seconds
#
# Revision: 0
# Processed by: cddbd v1.5.1PL0 Copyright (c) Steve Scherf et al.
# Submitted via: CDex 1.51
#
DISCID=3004f605
DTITLE=MISA - BANZAI
DYEAR=1900
DGENRE=Eurodance
TTITLE0=BANZAI APOGEOUS
TTITLE1=BANZAI APOGEOUS EX
TTITLE2=BANZAI TO-SK
TTITLE3=BANZAI VERSA
TTITLE4=BANZAI KARAOKE
EXTD=
EXTT0=
EXTT1=
EXTT2=
EXTT3=
EXTT4=
PLAYORDER=
